<mxfile host="app.diagrams.net" modified="2024-04-10T15:49:02.153Z" agent="Mozilla/5.0 (Windows NT 10.0; Win64; x64) AppleWebKit/537.36 (KHTML, like Gecko) Chrome/123.0.0.0 Safari/537.36" version="24.2.3" etag="QvTfj77m5ECfonLVa0Sk" type="github">
  <diagram name="Page-1" id="55QNDi1eLhsCKc66WdmF">
    <mxGraphModel>
      <root>
        <mxCell id="0" />
        <mxCell id="1" parent="0" />
      </root>
    </mxGraphModel>
  </diagram>
</mxfile>
